<?xml version="1.0" encoding="UTF-8"?>
<svg id="Layer_1" data-name="Layer 1" xmlns="http://www.w3.org/2000/svg" viewBox="0 0 609.28 232.71">
  <defs>
    <style>
      .cls-1 {
        opacity: .31;
      }

      .cls-1, .cls-2 {
        fill: #6b6153;
      }

      .cls-3 {
        fill: #839b42;
      }
    </style>
  </defs>
  <path class="cls-2" d="M35.48,117.87c-.05-3.26.93-5,3.42-6.39,4.89-2.75,8.11-7.8,8.12-13.84l.16-78.31c0-4.29-2.67-8.94-7.28-8.56-7.27.59-13.02,6.82-12.59,14.14.15,2.46,1.64,5.19,3.96,5.73,2.49.58,4.41,1.52,5.54,3.94,2.32,4.98.92,10.77-3.04,14.65-3.22,3.17-7.38,4.44-11.95,4.55-8.85.21-16.59-5.08-19.03-13.72C-.36,28.83,3.73,16.85,12.96,9.67,22.85,1.98,35.68.06,48.14.05L93.09,0c10.78-.01,23.82,1.46,32.93,6.87,11.77,7,15.14,20.77,10.82,33.4-3.62,8.24-10.17,12.57-18.53,16.11,5.53,1.12,10.43,2.38,15.16,4.96,6.97,3.81,12.42,9.61,14.75,17.3,2.14,7.08,1.9,14.56-.44,21.56-4.39,13.15-16.44,20.05-29.67,22.49-6.56,1.21-12.85,1.54-19.63,1.48l-58.58-.55c-2.93-.03-4.37-3.28-4.41-5.74ZM102.68,46.26c4.49-7.73,4.7-20.2,1.06-28.21-2.62-5.76-8.7-9.1-14.85-6.89-2.5.9-3.84,3.95-3.84,6.61v29.35c-.01,2.48,1.69,5.06,4.03,5.62,5.54,1.31,10.71-1.52,13.59-6.48ZM95.13,111.96c8.1.36,15.17-4.31,18.14-11.76s2.88-16.06-.08-23.53-9.05-11.78-16.62-12.58l-5.29-.19c-3.32-.12-6.14,2.26-6.14,5.81l-.02,29.09c0,6.36,2.94,12.85,10.01,13.16Z"/>
  <path class="cls-2" d="M257,70.26l-.16,32.48c-.02,3.99,2.33,6.99,5.64,8.53,1.89.88,2.08,2.97,2.21,4.93.14,2.11-.98,5.44-3.66,5.42l-37.52-.25c-2.38-.02-3.36-3.38-3.3-5.17.09-2.35.73-4.26,2.8-5.23,2.8-1.31,4.93-3.91,4.94-7.31l.03-33.82c0-2.89-1.88-5.2-4.37-6.09-1.92-.68-2.98-2.23-3.09-4.15-.19-3.1,1.71-5.08,4.52-6.03l26.85-9.06c1.27-.43,2.72.19,3.58.79,1.05.73,1.54,1.99,1.56,3.46l.1,5.91c8.08-9.21,20.25-12.42,31.66-9.34,10.39,2.81,16.22,10.99,16.25,21.83l.12,41.34c.02,7.49,1.26,17.07,5.97,22.45,1.2,1.37,2.61,2.12,4.29,2.07,1.53-.04,3.53-.82,4.03-2.61.91-3.27,3.12-5.38,6.61-5.77,2.76-.32,5.48.61,7.16,2.57,1.89,2.22,2.29,5.27,1.1,8.05-1.37,3.22-4.36,5.24-7.82,6.21-13.87,3.88-32.19-.16-41.9-10.9-4.82-5.33-8.14-11.83-8.17-19.14l-.18-41.31c-.02-3.75-2.13-7.19-5.42-8.55-3.11-1.28-6.44-.92-9.41,1.13-1.9,1.31-4.41,4.19-4.43,7.55Z"/>
  <path class="cls-2" d="M546.26,74.57c.01-2.6-.09-4.67-.77-6.85-1.28-4.06-4.81-6.42-9.23-5.86s-8.79,4.63-8.83,9.72l-.21,30.48c-.02,2.98,1.36,6.04,3.93,7.23s3.55,2.86,3.42,5.87c-.07,1.62-.73,4.75-3.11,4.74l-35.67-.06c-2.49,0-3.31-3.15-3.28-4.89.05-2.89,1.22-4.41,3.61-5.61s3.64-4.1,3.64-6.77l.04-32.04c0-3.02-2.07-5.25-4.6-6.13-1.81-.63-2.48-2.37-2.54-4.03-.11-3.03,1.63-4.96,4.37-5.89l25.21-8.57c2.25-.76,5.21.69,5.28,2.93l.24,7.36c8.8-9.73,22.87-12.69,34.51-6.74,5.5,2.81,9.13,7.87,10.31,13.8.68,3.43.84,6.52.84,10.07l-.07,48.5c0,4.58,1.68,9.07,5.24,8.4,4.47-.84,1.8-7.59,7-11.31,2.43-1.74,5.41-2.02,8.34-.95,2.41.88,4.73,2.98,5.47,5.95,2,8.03-5.73,15.44-13.83,17.69-7.65,2.13-15.72,1.7-23.05-1.28-10.94-4.44-16.49-15.55-16.43-27.14l.19-38.62Z"/>
  <path class="cls-2" d="M190.42,101.25c8.15,4.78,17.59,1.58,23.82-5.11,1.32-1.41,3.27-1.74,4.98-.82,1.22.65,2.32,2.67,1.83,4.51-1.52,5.7-5.22,10.4-9.76,14.22-6.72,5.66-15.06,7.99-23.82,7.82-15.51-.3-28.64-10-33.25-24.83-2.71-8.73-2.59-18,.35-26.74,3.71-11.03,12.19-19.33,23.3-22.84,8.47-2.68,17.47-2.72,25.89.09,5.1,1.7,9.23,4.74,12.21,9.07,3.75,5.45,3.79,12.26-.31,17.55-7.47,9.63-21.61,14.09-33.48,16.96,1.7,4.38,4.41,7.88,8.25,10.13ZM195,72.19c3.36-4.42,3.28-10.5-.46-14.65-2.49-2.76-6.52-3.12-9.6-1.17-7.09,4.51-8.23,16.18-5.92,24.26,6.16-1.35,12.34-3.67,15.98-8.45Z"/>
  <path class="cls-2" d="M418.33,96.28c1.35-1.54,3.12-1.9,4.68-1.33,4.19,1.52,1.95,7.56-1.1,11.94-8.94,12.87-25.54,16.71-40.27,11.93-21.03-6.83-28.13-31.78-20.68-51.3,3.23-8.46,9.38-15.06,17.69-18.73,14.62-6.46,36.76-4.28,43.3,10.55,2.53,5.74,1.37,11.79-2.88,16.26-7.89,8.43-21.39,12.5-32.77,15.6,2.31,7.88,9.39,12.9,17.52,12.25,5.63-.45,10.52-3.08,14.51-7.17ZM391.92,77.73c2.88-.93,5.1-2.83,7.04-5,3.53-3.93,4.06-9.71,1.17-14.1-1.37-2.08-3.52-3.37-5.64-3.6-2.42-.26-4.55.58-6.37,2.23-5.71,5.18-6.64,15.76-4.68,23.21l8.48-2.75Z"/>
  <path class="cls-2" d="M355.31,103.02c1.87-.74,4.01-.68,5.11.97,1.77,2.67.66,5.6-1.77,7.27-3.29,2.26-6.4,4.47-10.37,5.48-11.56,2.95-26.19-.36-30.47-12.15-1.07-2.94-1.55-5.83-1.56-9.06l-.06-45.83c0-2.43-1.97-3.94-4.15-3.84-2.57.12-4.33-1.46-4.77-4-.4-2.36.08-5.61,2.61-6.72,10.8-4.75,21.25-9.65,31.66-15.05,2.27-1.18,5.65.42,5.67,2.73l.15,21.22c0,.79.64,1.7,1.42,1.71l10.02.15c2.57.04,3.46,2.78,3.53,5.06s-.87,5.31-3.54,5.37l-9.92.23c-.92.02-1.54,1.41-1.54,2.35l-.05,34.48c0,2.34.24,4.46,1.02,6.57,1.05,2.83,3.95,4.27,7.01,3.06Z"/>
  <path class="cls-2" d="M485.21,96.17c1.04-1.16,2.3-1.72,3.68-1.55,1.14.13,2.46.86,2.95,2.21.68,1.87.23,3.76-.61,5.57-5.11,11.01-15.84,17.87-28.01,18.32-7.96.3-15.59-1.36-22.22-5.83-16.05-10.84-19.27-33.72-11.33-50.27,4.13-8.62,11.42-14.65,20.46-17.4,13.42-4.08,31.41-1.8,38.38,11.14,2.82,5.23,2.31,11.21-1.35,15.84-7.76,9.57-21.58,13.64-33.72,16.86,2.19,8.31,9.89,13.4,18.43,12.16,5.17-.76,9.64-3.18,13.34-7.04ZM466.41,72.16c3.34-3.97,3.71-9.42.87-13.74-2.25-3.42-6.6-4.54-10.11-2.34-7.28,4.55-8.18,15.93-6.46,24.35,5.89-1.38,11.97-3.65,15.71-8.27Z"/>
  <path class="cls-3" d="M412.76,168.9c.12-2.26,1.21-3.52,3.31-3.5l22.86.23c1.77.02,2.13,2.49,2.17,3.64.08,2.39-.82,3.29-2.75,4.14-1.1.49-1.64,2.38-1.66,3.62l-.35,20.44c-.05,2.99-1.97,4.63-4.8,4.7-6.05.16-4.51-4.93-6.66-6.21-.74-.44-2.08-.32-2.86.3-4.84,3.8-10.55,5.71-16.78,5.53-5.26-.15-10.19-1.3-14.76-3.99-6.9-4.06-11.72-10.57-14.18-18.18-5.97-18.45,1.15-38.51,19.62-45.51,8.46-3.2,17.6-3.42,26.27-.75,7.54,2.33,13.66,8.67,12.62,16.55-.45,3.43-2.71,6.05-5.39,7.27-3.21,1.46-7.02,1.27-9.69-.73-2.49-1.86-2.55-4.61-1.47-7.13,1.18-2.75-.49-5.78-2.88-7.42-3.42-2.35-7.89-2-11.38.36-2.98,2.02-5.02,5.05-6.21,8.57-3.19,9.42-3.13,19.79.45,29.06,2.52,6.52,8.62,11.85,15.18,10.35,3.02-.69,5.22-2.8,5.71-5.89.43-2.74.51-5.62-.04-8.31-.39-1.96-1.91-3-3.73-3.16-1.97-.17-2.73-2.12-2.62-4Z"/>
  <path class="cls-3" d="M36.43,211.72c-9.79,2.82-23.96,2.05-31.53-5.21-4.21-4.04-5.96-9.91-4.25-15.45,2.23-7.19,10.12-10.86,16.84-7.7,2.85,1.34,4.59,4.14,4.19,7.04-.31,2.26-1.74,2.92-3.69,3.24-1.48.24-2.17,2.22-2.26,3.32-.11,1.47.37,2.95,1.49,4.11,3.12,3.21,8.14,4.04,12.3,2.34,2.21-.91,3.78-2.56,4.71-4.73,2.42-5.6.51-11.71-4.2-15.56-9.8-8.01-26.58-12.28-27.19-28.43-.34-8.99,4.49-16.63,12.89-19.9,7.56-2.94,16.03-3.05,23.69-.29,7.08,2.55,12.62,9.33,10.66,16.74-1.44,5.48-7.49,8.39-12.65,6.19-2.45-1.04-4.65-3.95-3.39-6.49,1.46-2.94,1.48-6.08-1.3-8.44-1.71-1.45-4.22-1.79-6.53-1.04-4.81,1.55-6.28,8.08-3.67,12.8,1.44,2.61,3.52,4.63,5.97,6.28l9.05,6.07c3.35,2.25,6.34,4.52,9.16,7.41,7.41,7.59,8.75,19,3.1,28.14-2.98,4.82-7.88,7.98-13.4,9.57Z"/>
  <path class="cls-1" d="M346.2,230.06l-9.31-4.92c-3.73-1.97-7.1-4.3-11.03-5.91-5.64-2.31-11.44-2.83-17.43-1.62l-12.43,3.74c-8,2.41-15.88,3.34-24.17,2.21-10.21-1.39-19.7-5.32-27.61-11.9l2.13-4.47c10.23,9.63,24.83,12.25,37.94,7.32,10.65-4,18.6-12.6,21.9-22.34,7.14-21.11-5.38-43.06-27.22-47.71-14.23-3.02-28.59,2.46-37.22,14.4l-2.97-4.41c7.77-9.41,19.1-15.27,31.45-15.66,11.65-.37,22.87,3.62,31.15,11.6,16.08,15.48,17.86,40.16,4.2,58.01,9.38-4.13,18.99-4.33,28.24-1.04l11.6,3.57c13.34,2.68,23.85-3.14,30.38-15.12,1.32,1.08,2.19,2.48,3.27,3.83l-2.49,4.07,5.44,7.2c1.04-1.27,1.57-2.79,2.32-4.51l4.74,5.23c-7.27,16.83-25.39,25.93-42.87,18.44ZM375.95,200.79c-.3-.48-1-.02-1.29.48-.18.32-.72.98-.02,1.3.46-.14,1.35-.96,1.31-1.78ZM368.95,209.02l3.06-2.69c.36-.32.29-.81.14-1.07-.08-.14-.46-.32-.64-.15l-3.25,2.92c-.47.42.15,1.47.7.99ZM366.83,224.17c5.35-2.23,9.61-5.61,12.85-9.97l-5.43-7.34c-3.15,3.78-6.96,6.26-11.17,8.4l3.75,8.91ZM316.79,212.97l-.47-3.86-8.26,2.03c-.32.88-.33,1.79-.13,2.61,3.12-.56,5.74-.87,8.87-.78ZM331.09,216.57l-.84-5.68c-3.25-1.03-6.45-1.82-9.78-1.79l.53,4.39c3.6.7,6.71,1.61,10.08,3.09ZM362.09,213.15c1.33-.38,2.34-.87,3.26-1.56.4-.3,0-1.3-.35-1.14l-3.23,1.54c-.48.23-.18,1.3.32,1.16ZM385.47,212.4c-.17-.4-.67-1.04-1.01-.59-.47.62-.99,1.4-.96,2,.03.42.5.84.74.92.34.12,1.69-1.21,1.23-2.33ZM343.43,212.53c-.92-.35-1.8-.68-2.8-.39.71,1.03,1.93,1.23,2.87,1.32.23-.08.28-.79-.08-.92ZM346.52,223.79l-1.89-7.73-10.34-3.61.93,6.01,11.31,5.33ZM303.64,214.95c.54-.17.67-1.65.18-1.98l-6.42,3.69c2.42-.04,4.13-1.06,6.23-1.71ZM354.92,214.85c1.55-.07,2.68-.18,3.67-.66.23-.12.05-1.1-.21-1.07l-3.66.42c-.26.41-.24,1.04.2,1.31ZM350.73,214.97c.28-.57.02-1.18-.19-1.19l-3.31-.28c-.14.64.21,1.04.56,1.09l2.94.39ZM363.19,225.16l-3.45-9c-3.65.98-7.15,1.09-11.29.59l2.31,8.25c4.05,1.09,8.23,1.09,12.43.16ZM379.38,220.87c2.24-1.68,3.99-3.83,2.28-4.69l-3.29,3.6c-.12.3.75,1.29,1.01,1.09ZM372.28,226.33l4.07-2.69c.24-.34-.56-1.46-.96-1.36l-3.55,2.35c-.38.25-.16,1.42.45,1.7ZM347.35,227.6c.29-.17.19-1.1-.13-1.23l-3.8-1.55c-.47,1.45,1.61,2.19,3.93,2.78ZM364.03,229.18c1.73.07,3.39-.62,4.66-1.25.29-.41-.28-1.75-.75-1.62l-4.6,1.28c-.1.34.06,1.57.69,1.6ZM355.18,229.76c.3-.68-.01-1.64-.33-1.68l-3.95-.57c-.3.45-.15,1.16.01,1.24,1.34.58,2.78.85,4.28,1.01ZM360.71,228.26c-.43-.55-2.25-.47-2.61.11-.29.47-.01,1.31.26,1.49.56.38,2.46.09,2.6-.19.11-.22.07-.99-.25-1.41Z"/>
  <path class="cls-3" d="M581.49,196.89l.13-25.69c0-1.3-.23-2.44-.66-3.61-.95-2.66-3.93-3.86-6.51-2.46-1.82.99-3,3.14-3.01,5.33l-.05,18.13c0,2.18,1.14,3.57,2.88,4.85,1.33.97,1.38,5.35-.67,5.49-6.38.45-12.73.4-19.13-.07-2.14-.16-1.99-4.63-.55-5.57,1.92-1.27,2.86-2.97,2.87-5.22l.13-19.01c.01-2-1.27-2.94-2.78-3.96-1.5-1.01-1.47-4.77.47-5.43l13.39-4.54c1.51-.51,3.43.66,3.5,1.99l.19,3.71c3.3-4.2,8.25-6.12,13.57-5.58s9.08,3.81,10.41,8.72c.68,2.5.77,4.93.75,7.58l-.17,29.48c0,1.27.38,3.28,1.6,3.58,2.82.68.1-6.53,5.27-7.82,2.45-.62,4.94.73,5.8,3.26.91,2.69-.1,5.51-1.94,7.63-2.77,3.19-6.71,4.43-10.95,4.41-5.54-.02-10.58-2.74-12.88-7.84-1.01-2.24-1.69-4.66-1.68-7.38Z"/>
  <path class="cls-3" d="M219.98,171.58c0-2.94-.82-5.8-3.15-6.59-1.38-.47-2.78-.18-3.9.73-1.53,1.24-2.24,3.1-2.25,5.12l-.07,17.21c0,2.29.98,3.79,2.76,5.23,1.19.96,1.14,4.51-.45,5.21l-17.82-.07c-1.61-.64-1.67-4.2-.47-5.2,1.69-1.39,2.85-2.86,2.86-5.15l.13-18.65c.02-2.17-1.06-3.21-2.74-4.38-1.36-.95-1.27-4.7.46-5.26l11.74-3.84c1.62-.53,3.47.74,3.62,2.31.1,1.02-.23,1.9.24,2.97,4.1-5.62,12.08-7.13,17.6-2.67,2.99,2.42,4.33,6.24,4.32,10.19l-.12,34.13c0,1.01-.03,2.28.84,2.82,1.38.86.25-4.65,4.44-4.89,1.96-.11,3.62,1.36,3.89,3.48.52,4-2.45,7.06-6.24,7.94-5.93,1.38-11.67-1.16-14.07-6.83-1-2.38-1.67-4.87-1.67-7.59l.04-26.21Z"/>
  <path class="cls-3" d="M538.45,189.75c3.78.44,7.16-1.37,9.43-4.08.73-.87,1.46-1.49,2.58-1.15.74.22,1.81,1.32,1.53,2.53-1.58,6.85-7.26,12.06-14.21,13.31-8.18,1.47-15.8-2.21-19.77-9.48-5.6-10.26-3.72-26.17,6.15-32.91,7.94-5.43,20.93-4.53,25.71,3.59,2.27,3.87,1.77,8.25-1.3,11.5-1.86,1.97-4.04,3.59-6.61,4.54l-11.48,4.27c.7,3.89,3.63,7.39,7.97,7.89ZM537.16,170.82c2.72-2.9,2.64-7.13-.09-9.76-1.91-1.56-4.44-.92-5.91,1.12-2.58,3.58-3.03,8.21-2.09,12.71,3.08-.61,5.9-1.75,8.08-4.07Z"/>
  <path class="cls-3" d="M497.7,188.73c4.42,1.99,9.24.21,12.15-3.3.78-.94,1.65-1.52,2.74-1.12,3.47,1.3-.54,9.8-6.65,13.4-6.23,3.67-14.07,3.55-20-.63-9.62-6.78-11.02-21.8-5.85-32.4,1.87-3.83,4.88-6.81,8.72-8.56,9.7-4.41,22.91-.98,24.44,9.3.4,2.71-.81,5.23-2.54,7.19-4.13,4.65-12.06,7.08-18.33,9.13.69,2.86,2.35,5.65,5.32,6.99ZM499.01,170.84c2.67-2.6,2.95-6.46.85-9.26-1.45-1.94-4.03-2.22-5.82-.59-3.37,3.09-3.84,8.97-2.97,13.83,2.85-.75,5.68-1.78,7.94-3.98Z"/>
  <path class="cls-3" d="M179.1,189.09c3.95,1.3,7.96-.65,10.25-3.71.62-.83,1.34-1.21,2.12-1.01,4.22,1.05-1.39,14.61-13.31,15.69-6.4.58-12.1-1.9-15.68-7.17-5.09-7.5-5.38-18.36-1.92-26.59,3.06-7.28,10.05-11.38,17.91-10.93,4.19.24,8.12,1.37,10.94,4.49s3.84,7.1,2.18,10.81c-2.65,5.93-12.08,8.71-18.69,11,.8,3.19,2.78,6.29,6.21,7.42ZM178.44,171.73c3.17-2.75,3.52-7.59.41-10.31-1.77-1.55-4.35-.45-5.56,1.43-2.27,3.56-2.61,7.83-1.75,12.14,2.58-.63,4.86-1.49,6.9-3.26Z"/>
  <path class="cls-3" d="M144.11,189.14c3.78.77,7.29-1.18,9.41-3.95.61-.79,1.54-1.14,2.24-.9,4,1.41-2.05,15.79-15.46,15.52-6.46-.13-11.81-3.41-14.74-9.3-5.58-11.21-3.34-28.57,8.16-33.75,5.12-2.31,10.96-2.39,15.99-.05,4.51,2.1,7.23,6.65,6.63,11.53-.9,7.25-11.8,10.83-19.09,13.2.51,3.48,2.99,6.92,6.87,7.71ZM142.8,171.39c2.68-2.48,3.22-6.18,1.38-9.12-.77-1.23-1.98-1.91-3.33-1.83-4.36.25-6.49,8.71-5.09,14.38,2.52-.58,4.98-1.52,7.04-3.43Z"/>
  <path class="cls-3" d="M70.73,161.08c-5.37,5.77-4.4,22.79,3.63,26.7,3.89,1.89,8.07.12,10.54-3.19.63-.84,1.34-1.38,2.28-1.26,4.9.64-1.71,16.43-15.44,15.93-5.88-.21-10.97-3.45-14.08-8.92-4.53-7.96-4.71-17.86-.77-26.17,3.22-6.79,9.7-10.66,17.16-10.49,4.03.09,8.04,1.02,11.22,3.38l-.34,1.31c-.12.47.71.57,1.06.9,3.2,3,3.76,8.12,1.18,11.72-1.73,2.41-4.93,3.31-7.59,2.29s-4.15-4.22-2.52-6.67c1.3-1.96,1.23-4.1-.41-5.81s-4.2-1.56-5.9.28Z"/>
  <path class="cls-3" d="M460.51,186.66c0,2.42,1.23,3.98,3.12,5.14,1.68,1.03,1.76,5.06-.02,5.97l-20.12-.09c-1.93-.62-1.79-4.68-.29-5.72,1.76-1.22,2.98-2.81,2.99-5.06l.14-19.63c.01-2.01-1.1-3.02-2.7-3.98-1.77-1.07-1.7-5.14.4-5.75l11.55-3.36c1.33-.39,2.79-.03,3.61.7,1.06.93,1.16,2.2,1.2,3.87,1.63-1.81,3.08-3.35,5.27-4.17,4.98-1.88,10.21.71,11.51,5.88.88,3.5.53,7.19-1.58,10.09-2.02,2.77-5.84,3.67-8.49,1.43-3.18-2.68-.35-6.96-2.26-8.37-.73-.54-1.8-.49-2.57.2-1.09.98-1.74,2.53-1.74,4.11v18.74Z"/>
  <path class="cls-3" d="M107.29,186.72c0,2.46,1.26,3.84,2.88,5.28,1.26,1.12,1.25,4.44-.22,5.43h-18.48c-1.3-.58-1.38-2.54-1.29-3.64.22-2.78,3.93-2.72,3.93-7.49v-19.01c.02-2.14-1.11-3.05-2.76-4.18-1.5-1.02-1.4-4.84.42-5.37l10.98-3.19c1.26-.36,2.59-.06,3.35.61,1.09.96,1.14,2.3,1.12,3.87,1.82-2.72,4.52-4.61,7.83-4.61,3.05,0,5.78,1.57,6.99,4.41,1.55,3.64,1.51,7.89-.41,11.28-1.58,2.79-4.88,4.2-7.63,2.51-3.8-2.33-1.37-6.87-2.63-8.34-.34-.4-1.08-.82-1.87-.46-1.35.63-2.16,2.11-2.16,3.69l-.06,19.2Z"/>
  <path class="cls-1" d="M288.09,160.19c-.14,3.42-2.19,6.22-4.57,7.65-3.02,1.81-6.52,1.99-9.56.37-4.27-2.28-5.96-7.18-4.3-11.76,1.49-4.12,5.92-6.83,10.66-6,4.33.76,7.98,4.67,7.77,9.74Z"/>
  <path class="cls-1" d="M259.03,175.67c-3.37,2.54-7.8,2.4-11.12.1-3.22-2.23-4.67-6.29-3.56-10.38.97-3.57,4.11-6.5,8.24-6.82,4.4-.34,8.2,2.11,9.76,5.97,1.6,3.96.33,8.39-3.31,11.13Z"/>
  <path class="cls-1" d="M276.23,210.36c-4.23-.92-6.97-4.41-7.2-8.57-.31-5.77,4.14-10.39,9.93-10.14,5.28.23,9.76,5.06,9,10.67-.73,5.38-5.87,9.32-11.74,8.04Z"/>
  <path class="cls-1" d="M300.99,186.28c-3.67,4.58-10.28,4.7-14.13.83-4.08-4.09-3.53-10.84,1.18-14.32,3.9-2.88,9.13-2.4,12.37.88s3.73,8.67.58,12.61Z"/>
  <path class="cls-1" d="M259.99,200.34c-3.27,3.01-7.88,3.54-11.55,1.3-5.06-3.09-5.87-9.97-2.13-14.25,3.82-4.37,10.62-4.44,14.49.1,3.22,3.77,2.97,9.37-.81,12.85Z"/>
  <polygon class="cls-2" points="352.98 176.6 349.09 176.57 343.03 165.27 343.02 176.62 338.97 176.59 338.98 157 342.78 157.02 348.92 168.11 349.02 157 352.93 157 352.98 176.6"/>
  <path class="cls-2" d="M336.14,171.05c-1.01,3.82-3.91,5.87-7.4,5.83s-6.47-2.41-7.27-6.16c-.61-2.88-.61-6.03.31-8.82,1.09-3.28,3.81-5.21,7.02-5.28s6.11,1.89,7.24,5.3c.93,2.82.9,6.1.1,9.13ZM331.69,162.34c-.45-1.35-1.71-2.13-2.95-2.11-3.42.05-4.19,6.48-2.71,10.96.42,1.28,1.59,2.04,2.75,2.11,3.44.21,4.48-6.24,2.91-10.96Z"/>
  <path class="cls-2" d="M346.03,199.27c-1.36.47-2.78.24-4.08.14l.08-8.1-3.86-.02-.02,8.19-3.95-.06v-19.46s3.96-.09,3.96-.09v7.6c1.35.26,2.5.26,3.77-.04l.14-7.47,3.92-.04.04,19.35Z"/>
  <path class="cls-2" d="M357.58,191.26c-1.62.08-3.2-.27-4.84.24.14,1.64.36,3.02-.36,4.28l6.24.16-.04,3.52-9.83.05v-19.64s9.88.04,9.88.04l.06,3.61-5.78.1-.03,3.96,4.7.03v3.65Z"/>
  <polygon class="cls-2" points="328.72 199.4 324.68 199.43 324.67 183.48 321.01 183.42 321.04 179.84 332.34 179.83 332.34 183.5 328.79 183.5 328.72 199.4"/>
  <path class="cls-1" d="M271.81,185.72c-3.13.22-5.47-2.04-5.77-4.66-.32-2.86,1.59-5.41,4.56-5.83s5.8,1.53,6.21,4.56c.37,2.76-1.72,5.7-5.01,5.92ZM270.24,177.8c-1.65.83-1.99,2.77-1.14,4.04.78,1.16,2.26,1.64,3.59.99s1.99-2.29,1.28-3.71c-.61-1.21-2.21-2.09-3.73-1.33Z"/>
</svg>